<!-- Exported by Character Map UWP -->
<svg height="100%" viewBox="0 0 973 536" width="100%" xmlns="http://www.w3.org/2000/svg" xmlns:xlink="http://www.w3.org/1999/xlink">
  <path d="M898,268C898,240 893.417,213.667 884.25,189C875.083,164.333 862.25,142.833 845.75,124.5C829.25,106.167 809.5,91.6667 786.5,81C763.5,70.3334 738,65 710,65C682,65 656.5,70.3334 633.5,81C610.5,91.6667 590.75,106.167 574.25,124.5C557.75,142.833 544.917,164.333 535.75,189C526.583,213.667 522,240 522,268C522,296 526.583,322.333 535.75,347C544.917,371.667 557.75,393.167 574.25,411.5C590.75,429.833 610.5,444.333 633.5,455C656.5,465.667 682,471 710,471C738,471 763.5,465.667 786.5,455C809.5,444.333 829.25,429.833 845.75,411.5C862.25,393.167 875.083,371.667 884.25,347C893.417,322.333 898,296 898,268ZM973,268C973,305 966.5,339.75 953.5,372.25C940.5,404.75 922.333,433.167 899,457.5C875.667,481.833 847.917,501 815.75,515C783.583,529 748.333,536 710,536C671.667,536 636.417,529 604.25,515C572.083,501 544.333,481.833 521,457.5C497.667,433.167 479.5,404.75 466.5,372.25C453.5,339.75 447,305 447,268C447,259.333 447.5,250.5 448.5,241.5C445.833,216.5 439.333,193.25 429,171.75C418.667,150.25 405.25,131.583 388.75,115.75C372.25,99.9167 353,87.5 331,78.5C309,69.5 285,65 259,65C231,65 205.667,70.3334 183,81C160.333,91.6667 141,106.167 125,124.5C109,142.833 96.6667,164.333 88,189C79.3333,213.667 75,240 75,268C75,296 79.4167,322.333 88.25,347C97.0833,371.667 109.583,393.167 125.75,411.5C141.917,429.833 161.333,444.333 184,455C206.667,465.667 232,471 260,471C285,471 307.5,467.833 327.5,461.5L346,524C318.333,532 289.333,536 259,536C221,536 186.167,529 154.5,515C122.833,501 95.5833,481.917 72.75,457.75C49.9167,433.583 32.0833,405.167 19.25,372.5C6.41666,339.833 -3.8147e-006,304.833 0,267.5C-3.8147e-006,230.5 6.25,195.833 18.75,163.5C31.25,131.167 48.8333,102.833 71.5,78.5C94.1667,54.1667 121.417,35 153.25,21C185.083,7 220.333,0 259,0C285.333,0 309.833,3.08337 332.5,9.25C355.167,15.4167 375.833,24.25 394.5,35.75C413.167,47.25 429.917,61.1667 444.75,77.5C459.583,93.8334 472.333,112.167 483,132.5C494,113.167 507.25,95.3334 522.75,79C538.25,62.6667 555.667,48.6667 575,37C594.333,25.3334 615.333,16.25 638,9.75C660.667,3.25 684.667,0 710,0C748.333,0 783.583,7 815.75,21C847.917,35 875.667,54.1667 899,78.5C922.333,102.833 940.5,131.25 953.5,163.75C966.5,196.25 973,231 973,268ZM634.5,268C634.5,257.667 636.333,247.833 640,238.5C643.667,229.167 648.917,221 655.75,214C662.583,207 670.583,201.417 679.75,197.25C688.917,193.083 699,191 710,191C721,191 731.083,193.083 740.25,197.25C749.417,201.417 757.417,207 764.25,214C771.083,221 776.333,229.167 780,238.5C783.667,247.833 785.5,257.667 785.5,268C785.5,278.667 783.667,288.667 780,298C776.333,307.333 771.083,315.5 764.25,322.5C757.417,329.5 749.417,335 740.25,339C731.083,343 721,345 710,345C699,345 688.917,343 679.75,339C670.583,335 662.583,329.5 655.75,322.5C648.917,315.5 643.667,307.333 640,298C636.333,288.667 634.5,278.667 634.5,268Z" fill="#FFFFFF">
  </path>
</svg>